<svg height="210" viewBox="0 0 795 210" width="795" xmlns="http://www.w3.org/2000/svg"><g fill="none" fill-rule="evenodd"><path d="m700.442374 107.133127c1.346111-3.334779 2.769896-6.708371 4.271387-10.1208495 1.758778-3.9972234 3.490882-7.754557 5.196364-11.2721136.639556-1.9186673 1.359045-3.6241237 2.15849-5.1164204s1.625525-3.1444576 2.478266-4.9565323c.213185-.2131852.959323-.4263672 2.238434-.6395525 1.279112-.2131852 2.851329-.3997195 4.7167-.5596085 1.865371-.1598889 3.863953-.2131844 5.995805-.1598881 2.131853.0532963 4.157082.2398306 6.075749.5596085 1.918668.3197778 3.597476.7727897 5.036477 1.3590491 1.439.5862595 2.371672 1.3590444 2.798042 2.318378-.852741 1.5988894-2.185129 3.9971874-3.997203 7.1949662-1.812075 3.1977787-3.677418 6.7152825-5.596085 10.552617-1.918667 3.8373341-3.704067 7.8078501-5.356253 11.9116661-1.652185 4.103816-2.691448 7.807854-3.117818 11.112226-.746149 4.690075-.826092 7.941101-.239833 9.753176.58626 1.812075 1.572227 2.611507 2.957931 2.398322s3.037865-1.279096 4.956532-3.197763 3.837306-4.26367 5.755973-7.035078c3.517557-7.141706 6.44881-13.084155 8.793848-17.827527 2.345037-4.7433718 4.370267-8.767183 6.075749-12.0715544 1.705482-3.3043713 3.117813-6.0490902 4.237035-8.234239 1.119223-2.1851488 2.265077-4.2903215 3.437595-6.3155814 1.59889-.5329631 3.544176-.9593272 5.835917-1.2791051 2.291742-.3197779 4.610097-.3997211 6.955134-.2398322 2.345038.1598889 4.556802.5329575 6.635358 1.119217 2.078556.5862594 3.597478 1.5189309 4.556812 2.7980424l-3.677427 8.4740712c-1.492297 3.5175566-3.11781 7.3548335-4.876588 11.5119459-1.758779 4.1571126-3.570826 8.3674576-5.436197 12.6311626s-3.650771 8.447403-5.356253 12.551219-3.251051 7.86115-4.636756 11.272114c1.065927-.852741 2.158485-1.918652 3.277707-3.197763 1.119223-1.279112 2.424963-3.037864 3.91726-5.276309 1.492296-2.238445 3.357639-5.116403 5.596084-8.633959 2.238445-3.517557 5.009812-7.99438 8.314183-13.430604 1.705482-2.878 3.544178-4.583457 5.516141-5.11642 1.971964-.5329631 3.67742-.3997243 5.116421.39972 1.439.799445 2.424967 2.025242 2.95793 3.677428.532963 1.652185.21319 3.277698-.959329 4.876588-2.345037 4.263705-5.009813 8.873766-7.994407 13.830324-2.984593 4.956557-6.208972 9.619914-9.673232 13.990211-3.46426 4.370298-7.088355 8.154279-10.872393 11.352058s-7.594667 5.169713-11.432002 5.915861c-.959334 3.943927-2.318369 8.154273-4.077147 12.631163-1.758779 4.47689-3.704065 8.900418-5.835917 13.270715-2.131853 4.370298-4.343617 8.580643-6.635358 12.631163s-4.45021 7.621319-6.47547 10.712505c-1.492296 2.345038-3.46423 4.050495-5.915861 5.116421-2.45163 1.065926-4.929871 1.545586-7.434798 1.438993s-4.876577-.772787-7.115022-1.998602-3.890606-3.06451-4.956532-5.51614c-.959334-2.771409-1.199164-5.569423-.719497-8.394128.479667-2.824704 1.465634-5.649366 2.957931-8.474071 1.492296-2.824704 3.330991-5.649367 5.51614-8.474071 2.185149-2.824705 4.450208-5.622719 6.795246-8.394127 1.705482-2.02526 3.330995-3.970546 4.876588-5.835917s2.984572-3.757362 4.31698-5.676029 2.531557-3.943897 3.597483-6.075749c1.065926-2.131853 1.918654-4.42356 2.55821-6.87519-1.812074 1.705482-3.677417 3.251052-5.596085 4.636756-1.918667 1.385704-3.943896 2.531557-6.075749 3.437595-2.131852.906037-4.396912 1.46564-6.795246 1.678825s-4.92987-.053292-7.594686-.799441c-5.649409-1.492296-9.646573-4.290311-11.99161-8.394127-.663381-1.160917-1.211605-2.392201-1.644672-3.693855-1.644421 2.258794-3.467856 4.316151-5.47035 6.172121-2.185149 2.02526-4.610095 3.704069-7.274911 5.036477-2.664815 1.332407-5.649364 1.998601-8.953735 1.998601-5.542817-.746148-9.673219-2.877968-12.391331-6.395525-1.972972-2.553258-3.440481-5.429408-4.402549-8.628499-.796101.991139-1.593666 1.948647-2.392697 2.872526-3.410964 3.943927-6.90182 7.035067-10.472673 9.273512s-7.221595 3.357651-10.952337 3.357651c-1.812075 0-4.210373-.666194-7.194966-1.998602-2.984594-1.332408-6.208972-3.064512-9.673232-5.196364-3.464261-2.131853-6.875174-4.530151-10.232841-7.194967-3.357668-2.664815-6.262273-5.329591-8.713904-7.994406-1.172519 3.410964-2.078542 7.514718-2.718098 12.311386s-.213192 10.925652 1.279105 18.387136c-4.157112-.852741-7.647968-1.945299-10.472673-3.277707-2.824704-1.332408-5.169707-2.718091-7.035078-4.157091-1.865371-1.439001-3.30435-2.824684-4.31698-4.157092-1.012629-1.332408-1.678823-2.424966-1.998601-3.277707-.691071-1.966893-1.176677-4.099465-1.45682-6.397732-1.403805 1.553595-2.836855 3.046619-4.299153 4.479075-2.664816 2.45163-6.022433 4.396916-10.072953 5.835917-4.05052 1.439-8.420752 2.158489-13.110827 2.158489-3.197779 0-6.342214-.453011-9.4334-1.359049-3.091186-.906037-5.969144-2.185129-8.633959-3.837315-2.664816-1.652186-5.009819-3.650767-7.035078-5.995805-1.13576-1.31509-2.103899-2.730735-2.904426-4.24695-.624482.684797-1.255221 1.354302-1.892219 2.008516-3.943927 4.05052-8.234215 7.301546-12.870995 9.753176-4.636779 2.451631-9.779796 3.677427-15.429205 3.677427-2.558223 0-5.276294-.34642-8.154295-1.039272-2.878001-.692853-5.596072-1.705467-8.154295-3.037875s-4.84993-3.011217-6.87519-5.036476c-1.499887-1.499888-2.678215-3.175146-3.535-5.025803-1.097231 1.380698-2.210626 2.682892-3.34019 3.906586-3.837334 4.157112-7.967736 7.248252-12.39133 9.273512-4.423594 2.025259-9.46002 2.558215-15.109429 1.598881-2.345038-.426371-4.290324-1.092564-5.835917-1.998602-1.545593-.906037-2.798038-1.918652-3.757371-3.037874-.959334-1.119223-1.678823-2.34502-2.15849-3.677428-.479667-1.332407-.772792-2.691443-.879385-4.077147-.213185-2.664816-.026651-5.569421.559609-8.713903.586259-3.144483 1.359044-6.315566 2.318378-9.513345.959333-3.197778 2.025244-6.315566 3.197762-9.353456 1.172519-3.037889 2.238429-5.782608 3.197763-8.234239.852741-2.45163 1.492287-4.396916 1.918658-5.835917.42637-1.439.479666-2.424967.159888-2.9579302-.319778-.5329631-1.092563-.6662019-2.318378-.3997203s-3.011215.87938-5.356253 1.8387136c-2.664815 1.1725189-5.063113 2.9845659-7.194966 5.4361969-2.131852 2.45163-3.997195 5.356236-5.596085 8.713903-1.598889 3.357668-2.957925 6.928467-4.077147 10.712505-1.119223 3.784038-1.971951 7.56802-2.55821 11.352058-.58626 3.784038-.932681 7.408133-1.039273 10.872393-.106593 3.464261-.000002 6.422162.319776 8.873792-4.370298-1.279112-7.967745-2.345022-10.792449-3.197763-2.824705-.852741-5.116412-1.732117-6.87519-2.638154s-3.037871-1.892004-3.837315-2.957931c-.799445-1.065926-1.412343-2.451609-1.838714-4.157091.190867-2.481275.520576-5.128076.989129-7.940421-1.473514 1.66983-3.029031 3.30401-4.666556 4.902546-4.47689 4.370298-9.380077 8.207575-14.709709 11.511946-5.329631 3.304371-10.978955 5.915852-16.948142 7.834519s-11.99158 2.877986-18.06736 2.877986c-6.395557 0-12.844314-1.172501-19.346464-3.517539-6.50215-2.345037-12.338009-5.75595-17.507751-10.23284-5.169742-4.476891-9.35344-9.939681-12.551219-16.388535-3.197779-6.448853-4.690053-13.830282-4.476868-22.144506.213186-5.009854 1.305744-10.2061663 3.277707-15.5890938 1.971964-5.3829275 4.636739-10.7124788 7.994407-15.9888137 3.357668-5.2763348 7.301536-10.4459996 11.831722-15.5091492 4.530187-5.0631497 9.380078-9.8064503 14.549821-14.2300442 5.169742-4.4235939 10.579236-8.4207573 16.228645-11.9916102 5.64941-3.570853 11.352029-6.5820494 17.108031-9.0336798 6.288965-2.4516303 12.551188-4.1037912 18.786856-4.9565322 6.235669-.852741 11.80505-.5329679 16.70831.9593288 4.903261 1.4922968 8.847129 4.4501977 11.831723 8.8737916 2.984593 4.4235939 4.423572 10.6858166 4.316979 18.7868561-.106592 5.3296312-1.572219 10.4460004-4.396924 15.3492611-2.824704 4.9032607-6.288912 9.246845-10.392728 13.0308831-4.103816 3.7840382-8.527344 6.7952347-13.270716 9.0336798s-9.03366 3.3576508-12.870995 3.3576508c-1.705482 0-3.704063-.5329551-5.995805-1.5988813-2.291741-1.0659263-4.610096-2.5049051-6.955134-4.3169797 5.436224-3.1977787 10.23282-7.0883512 14.389932-11.671834 4.157113-4.5834828 7.194957-9.0070104 9.113624-13.2707154 2.451631-6.6087426 3.064529-11.1122135 1.838714-13.5105475s-3.517522-3.4109488-6.87519-3.0378746-7.408127 1.8387008-12.151498 4.3969238c-4.743372 2.5582229-9.353434 5.5161239-13.830324 8.8737915-4.47689 3.3576677-8.474054 6.821876-11.991611 10.3927289-3.517556 3.5708529-5.755968 6.5287539-6.715301 8.8737916-3.197779 3.9439271-5.835907 8.2342159-7.914463 12.870995-2.078556 4.6367792-3.490887 9.2734888-4.237036 13.9102675-.746148 4.63678-.799444 9.14025-.159888 13.510548s2.13183 8.26087 4.476868 11.671834 5.596064 6.155683 9.753176 8.234239c4.157113 2.078556 9.326777 3.22441 15.50915 3.437595 4.583482.213185 9.593261-1.039259 15.029485-3.757371 5.436223-2.718112 11.032252-6.235616 16.788254-10.552617 5.756002-4.317002 11.511917-9.166893 17.267919-14.549821 2.37322-2.2194 4.692066-4.416137 6.956549-6.590221.414698-1.285937.840595-2.580087 1.27769-3.882452 2.611519-7.7812613 5.489477-15.5624061 8.633959-23.3436677 3.144482-7.7812615 6.342213-15.0294512 9.593288-21.7447866 3.251075-6.7153353 6.422158-12.6044894 9.513344-17.6676391 3.091186-5.0631496 5.809258-8.7138922 8.154295-10.9523373 1.065927-.9593336 3.091156-1.4922888 6.07575-1.5988814 2.984593-.1065926 5.942494.1332372 8.873791.7194966s5.436186 1.4389877 7.514743 2.5582102c2.078556 1.1192226 2.74475 2.3716671 1.998601 3.7573712-1.065926 1.9186673-2.478257 4.3169653-4.237035 7.1949662-1.758779 2.8780008-3.624122 5.9957883-5.596085 9.353456-1.971964 3.3576676-4.023841 6.821876-6.155693 10.3927289-2.131853 3.5708529-4.103787 7.0084134-5.915861 10.3127848-1.812075 3.3043713-3.41094 6.3155678-4.796645 9.0336797-1.385704 2.7181119-2.345023 4.9298757-2.877986 6.6353577 5.436224-5.5428165 10.685832-9.0869681 15.748981-10.6325611 5.06315-1.5455931 9.246848-1.22582 12.551219.9593288 3.304372 2.1851488 5.409544 6.1290167 6.315582 11.8317221.906037 5.7027054-.026635 12.924247-2.798043 21.664843-1.598889 4.90326-2.718095 8.580651-3.357651 11.032281-.639555 2.45163-1.119215 4.423564-1.438993 5.915861-.42637 2.238445-.479666 3.677424-.159888 4.31698.319778.639555.906028.719499 1.758769.239832s1.892004-1.359043 3.117819-2.638154c1.225815-1.279112 2.47826-2.824682 3.757371-4.636756 1.279112-1.59889 2.558204-3.277698 3.837316-5.036477.924566-1.271278 1.807354-2.486852 2.648378-3.646741.049053-.143719.098941-.287188.149664-.430406.906037-2.558223 1.9453-5.009817 3.117819-7.354854 2.238445-4.370298 4.90322-8.4474047 7.994407-12.2314428 3.091186-3.7840382 6.448803-7.08836 10.072952-9.9130645s7.354835-5.0631161 11.19217-6.7153017c3.837334-1.6521857 7.56802-2.4782662 11.192169-2.4782662 6.395558 0 11.00562 1.092558 13.830324 3.2777068 2.824705 2.1851488 4.263683 4.9831632 4.31698 8.3941272.053296 3.410964-1.039262 7.1949454-3.277707 11.3520577-2.238445 4.1571125-5.116403 8.2608665-8.633959 12.3113865-3.517557 4.05052-7.51472 7.754558-11.991611 11.112226-4.47689 3.357667-8.900417 5.9425-13.270715 7.754574.106593 2.878001.639548 5.009822 1.598881 6.395526.959334 1.385704 2.211779 2.238432 3.757372 2.55821s3.304345.186539 5.276308-.39972c1.971964-.58626 3.91725-1.518931 5.835917-2.798043 1.918667-1.065926 3.917249-2.744735 5.995805-5.036476 2.078556-2.291742 4.183729-4.796631 6.315582-7.514743.295219-.376404.588904-.754851.881055-1.135342.480777-4.631157 1.679369-9.1559 3.595812-13.574366 1.918668-4.423594 4.450205-8.6072918 7.594687-12.5512189s6.635338-7.4081354 10.472673-10.3927289c3.837334-2.9845935 7.914441-5.3562438 12.231442-7.1150221 4.317002-1.7587783 8.60729-2.6381543 12.870995-2.6381543 1.918668 0 3.917249.2398298 5.995806.7194967 2.078556.4796668 4.023842 1.2258039 5.835917 2.2384339 1.812074 1.0126299 3.330996 2.2917222 4.556811 3.8373153 1.225816 1.545593 1.945305 3.3842882 2.15849 5.5161407.106593 2.1318525-.21318 4.4502072-.959329 6.9551339-.746148 2.5049267-1.678819 4.9298725-2.798042 7.2749107-1.119223 2.345037-2.265076 4.476858-3.437595 6.395525s-2.078542 3.410942-2.718098 4.476868c-.959334.959333-2.451608 1.9453-4.476868 2.95793s-4.423558 1.518938-7.194966 1.518938c-1.705482 0-3.464234-.346421-5.276309-1.039273-1.812074-.692852-3.330996-1.705467-4.556812-3.037875-1.225815-1.332408-1.971952-2.957921-2.238434-4.876588-.266481-1.918667.399713-4.050488 1.998602-6.395525 1.812075-2.3450382 3.784009-3.8639603 5.915861-4.5568124 2.131853-.692852 4.210378-1.3057504 6.235638-1.8387135 0-.4263705.159886-.9593257.479664-1.5988814s.559608-1.3323974.719497-2.0785458c.159889-.7461483.186536-1.4123423.079944-1.9986017-.106593-.5862594-.532957-1.0392713-1.279105-1.3590491h.159888c-1.812075-.9593337-3.837304-.7195039-6.075749.7194966-2.238446 1.4390004-4.396914 3.5974687-6.47547 6.4754695-2.078556 2.8780009-3.943899 6.2622658-5.596085 10.1528968-1.652185 3.890631-2.771391 7.807851-3.357651 11.751778-.586259 3.943927-.479668 7.674613.319777 11.19217.799444 3.517556 2.638139 6.395514 5.51614 8.633959h-.159888c2.771408 1.705482 5.063115 2.424971 6.87519 2.15849 1.812075-.266482 3.997191-1.145858 6.555414-2.638155 1.705482-1.065926 3.517529-2.664791 5.436196-4.796644 1.918668-2.131852 3.917249-4.556798 5.995805-7.27491 2.078557-2.718112 4.183729-5.676013 6.315582-8.873791.049676-.074514.099351-.149085.149027-.223715 1.428378-5.402685 3.244049-10.977449 5.447058-16.7244279 2.45163-6.3955575 5.116406-12.7110757 7.994406-18.9467442 2.878001-6.2356685 5.86255-12.2314137 8.953736-17.9874154s6.022439-11.0056097 8.793848-15.7489815c2.771408-4.7433718 5.249649-8.8471262 7.434798-12.3113865s3.863957-5.9425016 5.036476-7.4347984c1.279112-1.0659262 2.95792-1.7321201 5.036477-1.9986017 2.078556-.2664815 4.210376-.213186 6.395525.1598882 2.185149.3730741 4.210378 1.0659158 6.075749 2.0785457 1.865371 1.01263 3.224407 2.1584835 4.077148 3.437595-.426371 1.5988893-1.305747 3.9172441-2.638155 6.9551339-1.332407 3.0378898-2.95792 6.4221549-4.876588 10.1528967-1.918667 3.7307419-3.943896 7.5946665-6.075749 11.5918899-2.131852 3.9972234-4.130434 7.7545571-5.995805 11.2721137s-3.464236 6.5554008-4.796644 9.1136238c-1.332408 2.5582229-2.158488 4.2636793-2.478266 5.1164203 3.091186-2.3450377 6.422155-4.3702672 9.993008-6.0757492 3.570853-1.7054819 7.328187-2.5582102 11.272114-2.5582102 5.329631 0 9.673215 1.3590356 13.030883 4.0771475 3.357668 2.718112 5.302954 6.5820366 5.835917 11.5918899.319778 4.4768903-.559598 8.8204744-2.638154 13.0308834-2.078556 4.210408-5.00981 7.99439-8.793848 11.352058-3.784038 3.357667-8.207565 6.102386-13.270715 8.234239-5.06315 2.131852-10.472644 3.410944-16.228646 3.837315l9.593288 5.995805c2.984594 1.865371 6.182325 2.531565 9.593289 1.998602 3.837334-.532963 7.274895-1.732112 10.312784-3.597483 3.03789-1.865371 5.835905-4.130431 8.394128-6.795246 2.558222-2.664816 4.929873-5.622717 7.115022-8.873792.253593-.377297.506827-.754953.759702-1.132968.66832-3.374187 1.507652-6.540703 2.518004-9.499593 3.517557-8.7405951 6.92847-17.0280473 10.232841-24.8626052 3.304371-7.8345578 6.502102-15.0028043 9.593288-21.5049544 3.091186-6.50215 5.969144-12.2847132 8.63396-17.3478628 2.664815-5.0631496 5.116409-9.3001429 7.354854-12.7111069.639556-.7461483 2.345012-1.3590467 5.11642-1.8387135 2.771409-.4796669 5.72931-.7194967 8.873792-.7194967s6.049088.2398298 8.713903.7194967c2.664816.4796668 4.210386 1.3057472 4.636756 2.4782661-.319777 1.2791115-.959324 2.9845679-1.918657 5.1164204-.959334 2.1318524-2.131835 4.583446-3.517539 7.3548542-1.385704 2.7714083-2.931274 5.7826047-4.636756 9.0336798-1.705482 3.251075-3.51753 6.6353401-5.436197 10.1528967-9.380151 17.9075608-17.854137 36.7208768-25.422214 56.4405126-.852741 1.918667-1.492287 4.02384-1.918657 6.315581-.426371 2.291741-.479666 4.130437-.159888 5.516141.319777 1.385704 1.065915 2.02525 2.238434 1.918657 1.172518-.106592 2.984566-1.598867 5.436196-4.476867 1.279112-1.59889 2.691443-3.437585 4.237036-5.516141s3.011219-4.210377 4.396924-6.395526c1.385704-2.185148 2.691444-4.263673 3.917259-6.235637.48803-.785092.929596-1.51527 1.324698-2.190537zm-219.492061 6.747349c1.492297-.852741 3.197753-1.945299 5.116421-3.277707 1.918667-1.332408 3.943896-3.064512 6.075749-5.196364 2.131852-1.918668 3.890604-4.103784 5.276308-6.5554139 1.385705-2.4516304 2.291728-4.5301554 2.718099-6.2356374.42637-1.7054819.239836-2.7447444-.559609-3.1178186-.799444-.3730742-2.265071.5063018-4.396923 2.6381542-1.385705 1.3857041-2.798036 3.0645128-4.237036 5.0364763-1.439001 1.9719636-2.798036 3.9438974-4.077148 5.9158614-1.279111 1.971963-2.451612 3.837306-3.517539 5.596084-1.065926 1.758779-1.865359 3.117814-2.398322 4.077148zm137.983462-16.7882544c-1.279111 1.1725188-2.664794 2.6381454-4.157091 4.3969234-1.492297 1.758779-2.984571 3.677417-4.476868 5.755973s-2.931276 4.263672-4.31698 6.555414c-1.385704 2.291741-2.611501 4.556801-3.677427 6.795246 4.47689-.639556 8.234224-1.705466 11.272114-3.197763s5.489483-3.224401 7.354854-5.196365c1.865371-1.971963 3.171111-3.997193 3.917259-6.075749.746149-2.078556 1.065922-3.970547.959329-5.676029-.319778-3.4109635-1.012619-5.329602-2.078546-5.7559725-1.065926-.4263705-2.664791.3730622-4.796644 2.3983221z" fill="#45c8f1"/><path d="m191.847641 40.1267114c-.583318-1.1971812-1.433243-2.2910738-2.700677-2.9893288-1.395071-.764094-2.919569-.8933558-4.347445-.6390605l-.101394-.0543624c-21.464057 3.7093289-43.120763 20.0639598-56.18457 45.1316779-14.074175 27.0120804-14.277561 56.6722144-2.812807 76.9693284 23.031498-1.874295 47.078136-18.781006 61.152311-45.793087 13.116891-25.1486575 14.170799-52.5720803 4.994582-72.6251676" fill="#828d8c"/><g fill="#121716"><path d="m184.655181 39.2653691c-21.14854 3.8615437-41.692887 20.5242282-53.719487 43.604698-12.732187 24.4346979-14.122486 52.7460399-3.705676 72.7393289 22.175608-2.577383 44.474083-19.717248 57.200902-44.151342 12.170341-23.3347654 14.058668-50.2169802 4.930166-70.1673829-.3853-.7852349-.892869-1.3699328-1.523902-1.7166443-.727656-.405906-1.668837-.5146308-2.561706-.3461073-.213525.0320134-.427647.0591946-.620297.0374496zm-58.954433 122.0520809c-.97816 0-1.88773-.530336-2.374425-1.397114-12.42681-21.99745-11.368727-52.512886 2.765092-79.6385239 13.095419-25.132953 34.832048-42.5434228 58.146855-46.5722819.21949-.0434899.449119-.0489262.673976-.0271812 1.930077-.2331544 3.871487.1081208 5.534359 1.0177852 1.646769.9042282 2.941042 2.317651 3.855383 4.2022148 9.860332 21.5426174 7.924887 50.3148322-5.026789 75.144564-14.132626 27.119597-38.40949 45.233758-63.354962 47.259664-.075151.005436-.144934.010873-.219489.010873z"/><path d="m181.800027 51.8943624c5.978706 3.2653691 11.288207 7.2132886 15.753151 11.5344967-.630436-8.3826846-2.502659-16.3057047-5.705537-23.3021477-.583318-1.1971812-1.433243-2.2910738-2.700677-2.9893288-1.395071-.764094-2.919569-.8933558-4.347445-.6390605l-.101394-.0543624c-7.400618 1.2835571-14.801235 4.1647651-21.8923 8.28 6.283487 1.3977182 12.742923 3.7582551 18.994202 7.1704027"/><path d="m148.234816 58.0028859c-5.710905 5.6863087-11.159973 12.1191946-16.170659 19.2895973 10.577252-.7369127 22.261496 1.8573826 32.848888 8.144094 10.52894 6.2389933 18.437724 15.2504698 22.971854 24.9004028 3.695537-8.036577 6.502976-16.0942954 8.535045-23.9901344-5.502748-7.2404698-12.615285-13.6685235-21.186713-18.7586577-8.727097-5.1879866-17.913454-8.3077852-26.998415-9.585302"/><path d="m120.957267 92.0548993c-3.614421 7.0828188-6.657454 14.1668457-9.132676 21.1850337 9.854964-.238591 20.244934 2.333356 29.576225 8.111476 9.432685 5.805906 13.646528 14.638591 17.945662 23.725571 8.496872-4.153893 12.651667-12.10349 17.175062-18.66745-5.437736-9.590134-13.271368-18.076107-23.495528-24.379731-10.197917-6.3036245-21.196852-9.4493963-32.068745-9.9748997"/></g><path d="m43.3730564 14.4791275c8.956727 9.0652349 11.3573946 21.3420806 5.357813 27.4125504-5.9942136 6.0704698-18.1168397 3.6446979-27.0681988-5.4259732-8.951359-9.0652349-11.3526231-21.3420805-5.3584095-27.41255034 5.9948101-6.0704698 18.1168398-3.63926174 27.0687953 5.42597314" fill="#828d8c"/><path d="m37.4372938 20.4958389c4.4971513 4.5380537 5.9297982 10.4677853 3.2189822 13.2082551-2.7269199 2.7561745-8.5720238 1.3046979-13.0632107-3.2442282-4.4864154-4.5489262-5.9196588-10.462349-3.2034748-13.2136913 2.7221484-2.7561745 8.5559199-1.2992617 13.0477033 3.2496644" fill="#121716"/><path d="m25.0635668 8.4847651c-1.9736172 0-4.7595846.43852349-6.8232641 2.5284564-4.8341395 4.8956376-2.3797923 15.6563758 5.357813 23.4924161 4.9194303 4.9820134 11.0371069 7.9550335 16.3686766 7.9550335 1.9730208 0 4.7643561-.4385234 6.828632-2.5290604 2.2348576-2.2632886 3.0102285-5.8433557 2.1817745-10.0836241-.9095697-4.6461745-3.588178-9.4065101-7.540184-13.408792-4.9194302-4.9820134-11.0371068-7.9544295-16.373448-7.9544295zm14.9032255 39.5208725c-6.7540772 0-14.3205045-3.5794631-20.2401632-9.5798658-10.17584868-10.305302-12.52880121-24.0710738-5.3578131-31.33328858 2.6845727-2.71872483 6.3795134-4.15328859 10.6947508-4.15328859 6.7534807 0 14.319908 3.57946309 20.2449347 9.57986577 4.711273 4.7651678 7.9195193 10.5384564 9.0372463 16.2513423 1.1976498 6.1139597-.1121306 11.4698658-3.6788368 15.0819463-2.6845727 2.7187248-6.3848813 4.1532886-10.7001187 4.1532886z" fill="#121716"/><path d="m125.700748 14.4791275c-8.956727 9.0652349-11.357991 21.3420806-5.357813 27.4125504 5.994213 6.0704698 18.116839 3.6446979 27.068199-5.4259732 8.951359-9.0652349 11.352026-21.3420805 5.357813-27.41255034-5.994214-6.0704698-18.11684-3.63926174-27.068199 5.42597314" fill="#828d8c"/><path d="m131.63651 20.4958389c-4.497151 4.5380537-5.930394 10.4677853-3.219578 13.2082551 2.72692 2.7561745 8.572023 1.3046979 13.063807-3.2442282 4.486415-4.5489262 5.919659-10.462349 3.203475-13.2136913-2.722149-2.7561745-8.55592-1.2992617-13.047704 3.2496644" fill="#121716"/><path d="m127.636789 16.4391946c-3.952006 4.0022819-6.63121 8.7626175-7.540184 13.408792-.82905 4.2402684-.053679 7.8203355 2.181775 10.0836241 2.064276 2.090537 4.855611 2.5290604 6.828632 2.5290604 5.33157 0 11.44865-2.9730201 16.368676-7.9550335 7.737009-7.8360403 10.191953-18.5967785 5.357813-23.4924161-2.064275-2.08993291-4.850243-2.5284564-6.823264-2.5284564-5.336937 0-11.454017 2.9724161-16.373448 7.9544295zm-9.229896 27.4131544c-3.566706-3.6120805-4.877083-8.9679866-3.678837-15.0819463 1.117727-5.7128859 4.325974-11.4861745 9.03665-16.2513423 5.925027-6.00040268 13.491454-9.57986577 20.245531-9.57986577 4.315238 0 8.010178 1.43456376 10.694155 4.15328859 7.171584 7.26221478 4.818035 21.02798658-5.357813 31.33328858-5.919659 6.0004027-13.48549 9.5798658-20.239567 9.5798658-4.315238 0-8.015546-1.4345638-10.700119-4.1532886z" fill="#121716"/><path d="m144.993766 37.0238255c-14.117119-19.7178523-35.859116-34.08463087-60.4568639-34.08463087-24.5977478 0-46.3403413 14.36677857-60.45746 34.08463087-17.17565872 23.9786577-27.12664982 57.9714765-16.90845397 86.7267785 8.65254307 24.358591 29.42651927 42.868389 53.85308907 49.919195 7.6362106 2.20953 15.5718338 3.308859 23.5128249 3.308859 7.9403946 0 15.8760179-1.099329 23.5122289-3.308859 24.426569-7.050806 45.201142-25.560604 53.853685-49.919195 10.218792-28.755302.267205-62.7481208-16.90905-86.7267785" fill="#828d8c"/><path d="m150.827537 47.9355705c-.97816-3.937047-3.464715-7.6735571-5.780092-10.911745-2.951777-4.1267114-6.25605-7.9936913-9.833492-11.5677181-12.764395-6.2057718-27.352104-6.1948993-38.474502 1.4025503-5.7967922 3.9642282-9.8603323 9.4989262-12.2025489 15.8073826-2.3422166-6.3084564-6.4063531-11.8431544-12.202549-15.8073826-11.122994-7.5974496-25.7107032-7.6083221-38.4745015-1.4025503-3.5774421 3.5740268-6.8823115 7.4410067-9.8334925 11.5677181-2.3159733 3.2381879-4.8025282 6.974698-5.7806885 10.911745-1.0217003 4.0995302-2.4919228 9.6016107-2.299273 13.7494631.3155163 6.7475838 4.4381039 11.7193288 9.8818042 15.2879194 1.3312522.877047 15.5718338 11.9138255 14.2453531 12.6990604 1.0055964-.5961745 2.2730297-1.3216107 3.6842047-2.0742282v1.2618121c5.1657597-3.0491275 12.6731395-6.7856376 17.6999288-6.2009396l.063819.0108725c.1449347.0163087.2624333.0815436.4014036.1087248 1.3849317.3678524 2.5986854 1.0504027 3.5291305 2.1986578 2.1495668 2.6480536 2.3422167 5.7074496 1.5936855 8.6804698.5558813-.4113423 1.0533116-.9314094 1.5936855-1.3699329-.0590475 2.0470469-.5189021 3.601208-.5189021 3.601208l-.9358131 1.3318792c5.5128873 1.056443 11.3043116 1.6357047 17.2985253 1.6357047h.0322077.0536795c6.015089 0 11.8065133-.5792617 17.3199972-1.6357047l-.935813-1.3318792s-.459855-1.5541611-.518902-3.601208c.539777.4385235 1.037207.9585906 1.593685 1.3699329-.748531-2.9730202-.556478-6.0324162 1.593686-8.6804698.929848-1.1482551 2.144198-1.8308054 3.52913-2.1986578.138971-.0271812.257065-.0924161.401404-.1087248l.063819-.0108725c5.026193-.584698 12.534169 3.1518121 17.699929 6.2009396v-1.2618121c1.411175.7526175 2.678608 1.4780537 3.684204 2.0742282-1.32648-.7852349 12.913505-11.8220134 14.244757-12.6990604 5.4437-3.5685906 9.566884-8.5403356 9.882401-15.2879194.192649-4.1478524-1.27817-9.6499329-2.29987-13.7494631" fill="#ededea"/><path d="m84.5369021 110.158188c-20.7316291 0-37.5279525 20.947047-37.5279525 46.789127 0 5.160806.695448 10.10537 1.9306735 14.746108 2.2670653.687382 4.5132552 1.429127 6.839368 1.976376 9.3414303 2.20953 19.0472849 3.308859 28.757911 3.308859s19.4164809-1.099329 28.7585069-3.308859c2.325517-.547249 4.571707-1.288994 6.838772-1.976376 1.235226-4.640738 1.930674-9.585302 1.930674-14.746108 0-25.84208-16.796324-46.789127-37.5279529-46.789127" fill="#ededea"/><path d="m88.7716202 67.7500671c-.9244807.3038255-1.8925015.4554363-2.8605223.5363759.0751514-.1679195.2135252-.2977853.2135252-.4874497v-3.758255c.1717745-.1353021.3590564-.2271141.5081662-.4113423l2.9088338-3.5631544c1.1499348-1.4079866.6101573-2.5616778-1.1976498-2.5616778h-7.6141424c-1.8078072 0-2.3475846 1.1536912-1.1982463 2.5616778l2.9088338 3.5631544c.2570653.3195302.5672136.541208.88273.7145637v3.4550336c0 .1896644.1336023.3195302.2033857.4874497-.9686172-.0869799-1.9306736-.2385907-2.8503828-.5363759-1.1875104-.3841611-3.6418575-1.8247651-3.9788457.4119463v.4059061c0 4.478859 3.5726707 8.1072483 8.0161425 8.1181208h.0208753c4.4440683-.0108725 8.015546-3.6392618 8.015546-8.1181208 0-.1353021 0-.2706041 0-.4059061-.3363917-2.2367114-2.7907388-.7961074-3.9782492-.4119463" fill="#121716"/><path d="m84.5369021 5.71167785c-22.0259021 0-43.2549614 12.00624165-58.2381098 32.94181205-18.86537094 26.3349665-25.3623828 59.3685906-16.54999408 84.1602681 8.09546888 22.798994 28.03085168 41.265906 52.02440648 48.192282 14.6944719 4.245101 30.8382908 4.245101 45.5220263 0 23.998923-6.926376 43.93371-25.393288 52.029178-48.192282 8.812986-24.7916775 2.315974-57.8253016-16.544029-84.1602681-14.989113-20.9355704-36.217576-32.94181205-58.2434779-32.94181205zm0 174.03946315c-8.2672433 0-16.4324956-1.147651-24.2667241-3.41698-26.0464985-7.51651-46.8586468-26.821812-55.67640352-51.646107-11.41644214-32.1245641 1.43861128-67.1889265 17.27228192-89.294497 16.025724-22.387651 38.8699406-35.22684559 62.6708457-35.22684559 23.8009049 0 46.6451219 12.83919459 62.6762139 35.22684559 15.828302 22.1055705 28.683356 57.1699329 17.266914 89.294497-8.817757 24.824295-29.629905 44.129597-55.681772 51.646107-7.82886 2.269329-15.994709 3.41698-24.2613559 3.41698z" fill="#121716"/><path d="m62.5378398 35.6369799c-2.3100089-1.2618121-4.8872226-1.9008725-7.6630505-1.9008725-7.7429733 0-15.4537389 6.5857047-19.2345667 11.0150335-6.3574452 7.446443-12.2395282 22.4251007-.0799229 27.5641611 4.3957567 1.8579866 9.2400356 2.4209396 13.9674125 2.5073154 6.0371572.1189933 12.4912255-.0211409 17.256178-4.3320805 4.833543-4.3755705 5.6142819-11.5236241 5.1651632-17.73-.5827211-8.0583221-3.9251662-14.1451007-9.4112136-17.123557" fill="#121716"/><path d="m62.8265163 48.5800671c-.0858872-1.0612752-1.2352255-2.2312752-1.9092018-2.8377181-1.5024302-1.327047-3.4223679-2.0633557-5.4168605-2.0633557-.6304362 0-1.2775727.0700671-1.9354451.2114094-2.5450059.541208-4.6844332 2.0953691-5.8659792 4.2668456-.4491187.8232886-1.2137537 2.4644296-1.0163324 3.4012752.1658101.7797986.8934659 1.3155705 1.6366291 1.4508725.9888962.1842282 1.3741959-.2869128 1.8447864-1.0987249.0906587-.157651.1866854-.3201342.2940445-.4928859 1.4326469-2.2475839 3.4545756-3.4822147 5.6948012-3.4822147 1.2566973 0 2.0213323.3678523 3.1605311 1.1319463.7485312.5037584 1.5668457 1.5161074 2.5825816.9742953.7324273-.3950336.9733887-.9096644.9304451-1.461745" fill="#fffffe"/><path d="m106.535964 35.6369799c2.310009-1.2618121 4.887223-1.9008725 7.662454-1.9008725 7.74357 0 15.453739 6.5857047 19.234567 11.0150335 6.358042 7.446443 12.240125 22.4251007.080519 27.5641611-4.395756 1.8579866-9.240632 2.4209396-13.967412 2.5073154-6.037157.1189933-12.491226-.0211409-17.256178-4.3320805-4.8341395-4.3755705-5.6148784-11.5236241-5.1657597-17.73.5833175-8.0583221 3.9251657-14.1451007 9.4118097-17.123557" fill="#121716"/><path d="m106.246691 48.5800671c.085888-1.0612752 1.235822-2.2312752 1.909202-2.8377181 1.503027-1.327047 3.422368-2.0633557 5.416861-2.0633557.631032 0 1.278169.0700671 1.936041.2114094 2.545006.541208 4.684433 2.0953691 5.865979 4.2668456.449119.8232886 1.213754 2.4644296 1.016333 3.4012752-.166407.7797986-.89287 1.3155705-1.637226 1.4508725-.988896.1842282-1.373599-.2869128-1.84419-1.0987249-.091255-.157651-.187282-.3201342-.294044-.4928859-1.433243-2.2475839-3.453979-3.4822147-5.694801-3.4822147-1.257294 0-2.021333.3678523-3.160531 1.1319463-.748532.5037584-1.566846 1.5161074-2.582582.9742953-.733024-.3950336-.973389-.9096644-.931042-1.461745" fill="#fffffe"/><path d="m30.1971187 99.067651c-.7270594 0-1.4547151-.292349-1.9944926-.8716107-1.0378041-1.1156376-.9841246-2.8703356.1174985-3.9213423.6256647-.5955705 6.2405431-5.8916779 10.2241603-7.8360403 1.352724-.6547651 2.994721-.0863758 3.651997 1.2944295.6578724 1.3753692.0858872 3.0328188-1.2781691 3.6984564-2.7269199 1.3324832-7.3093621 5.421141-8.844 6.88349-.529638.5037583-1.2036143.7526174-1.8769941.7526174" fill="#121716"/><path d="m62.9070356 81.4675168c-7.5562878-4.6026846-19.325822 1.8084564-23.4000979 4.3266443-3.358549-1.6677181-6.3204659-4.1049665-9.0318784-6.6877853-3.2672937-3.1083221-5.3208338-5.063557-7.5020118-9.1467785-.5135341-.7580537-1.3157448-1.3210067-2.2945015-1.3210067-3.2028783 0-3.1491988 3.4332886-1.8769941 5.4585906 3.9251662 6.2383893 8.4062137 10.2787248 14.4648428 14.4048322 1.705816 1.1591275 3.5076587 2.2312752 5.4275964 3.0002014.833822.3358389 1.8018427.2494631 2.5557418-.2597316 3.3370772-2.2475839 13.9196974-7.9985235 18.8444956-5.0200671 2.3952997 1.4563087 3.6734688 3.4604698 3.7963353 5.9569128.2194896 4.5-3.3418487 9.9694631-9.5287122 14.6373821-6.3526736 4.792953-17.5663264 6.141141-27.2608486 3.287115-6.9037834-2.030739-16.0955075-7.023625-20.69464988-19.2461079-.5344095-1.440604-2.13346291-2.1551678-3.52913057-1.6030872-1.41713946.5418121-2.122727 2.1448993-1.58294955 3.5746308 4.21384273 11.2046983 12.834178 19.2297983 24.2774599 22.5984563 3.9245698 1.158524 8.0262819 1.721477 12.0367389 1.721477 7.6356143 0 14.9348368-2.041007 20.0254451-5.880806 7.7698131-5.8651 12.0427033-12.920738 11.721819-19.3651004-.2141217-4.3326846-2.5026587-8.0365772-6.4487003-10.4357718" fill="#121716"/><path d="m138.876685 99.067651c.72706 0 1.454716-.292349 1.994493-.8716107 1.037208-1.1156376.983528-2.8703356-.117498-3.9213423-.625665-.5955705-6.240544-5.8916779-10.224161-7.8360403-1.352724-.6547651-2.994124-.0863758-3.652593 1.2944295-.657276 1.3753692-.085291 3.0328188 1.278169 3.6984564 2.727516 1.3324832 7.309958 5.421141 8.844596 6.88349.529042.5037583 1.203018.7526174 1.876994.7526174" fill="#121716"/><path d="m106.166769 81.4675168c7.555691-4.6026846 19.325822 1.8084564 23.400097 4.3266443 3.358549-1.6677181 6.321063-4.1049665 9.031282-6.6877853 3.267891-3.1083221 5.320834-5.063557 7.503205-9.1467785.512938-.7580537 1.315148-1.3210067 2.293309-1.3210067 3.202878 0 3.150391 3.4332886 1.87759 5.4585906-3.925166 6.2383893-8.406213 10.2787248-14.464843 14.4048322-1.706412 1.1591275-3.507658 2.2312752-5.427596 3.0002014-.834418.3358389-1.801843.2494631-2.556338-.2597316-3.336481-2.2475839-13.919101-7.9985235-18.843899-5.0200671-2.3953 1.4563087-3.673469 3.4604698-3.796932 5.9569128-.218893 4.5 3.342445 9.9694631 9.529309 14.6373821 6.352673 4.792953 17.566326 6.141141 27.260848 3.287115 6.903784-2.030739 16.095508-7.023625 20.694054-19.2461079.534409-1.440604 2.133463-2.1551678 3.529727-1.6030872 1.416543.5418121 2.122727 2.1448993 1.582353 3.5746308-4.213247 11.2046983-12.832985 19.2297983-24.276864 22.5984563-3.925166 1.158524-8.026282 1.721477-12.036739 1.721477-7.63621 0-14.935433-2.041007-20.026041-5.880806-7.769813-5.8651-12.042107-12.920738-11.7212228-19.3651004.2135253-4.3326846 2.5020628-8.0365772 6.4487008-10.4357718" fill="#121716"/><path d="m43.5275341 137.939195c8.9734273 9.086979 10.962552 21.824094 4.4279644 28.436375-6.5345875 6.617719-19.1117003 4.618994-28.0845311-4.473422-8.9728309-9.097853-10.96195553-21.824094-4.4166321-28.441812 6.5238516-6.622551 19.1009644-4.613557 28.0731988 4.478859" fill="#828d8c"/><path d="m40.5065697 148.477651c4.9301662 5.003758 5.7431128 12.29255 1.8024392 16.288792-3.946638 3.99745-11.1552018 3.185034-16.0907359-1.818725-4.9409021-5.009195-5.7532522-12.304027-1.8072107-16.300872 3.9460416-3.996242 11.1546054-3.173557 16.0955074 1.830805" fill="#ededea"/><path d="m25.5073175 132.328389c-3.3209733 0-6.1230445 1.067316-8.1175371 3.092618-2.5289021 2.556241-3.5398665 6.428053-2.8390504 10.900872.7431632 4.792953 3.3203768 9.628792 7.2562789 13.620202 7.5503234 7.657248 18.9775015 9.785234 24.2130445 4.472818 2.5235341-2.556241 3.5291306-6.422617 2.8336825-10.89604-.7485312-4.797785-3.3257448-9.633624-7.2616469-13.618993-4.6790653-4.738591-10.6893828-7.571477-16.0847715-7.571477zm12.3844629 40.724094c-6.9192908 0-14.1916736-3.352349-19.9562581-9.190268-4.7488487-4.808658-7.8712078-10.738389-8.79628491-16.678994-.97875668-6.271006.57735311-11.843154 4.37965281-15.682953 3.0370683-3.086577 7.1811276-4.716845 11.9884273-4.716845 6.9139229 0 14.19227 3.351745 19.9562582 9.1951 4.7488486 4.809262 7.8712077 10.728121 8.7962848 16.674162.9787567 6.27161-.5719851 11.843154-4.3689169 15.683557-3.0478041 3.085973-7.1972314 4.716241-11.9991632 4.716241z" fill="#121716"/><path d="m125.545674 137.939195c-8.972831 9.086979-10.961956 21.824094-4.427368 28.436375 6.534587 6.617719 19.111103 4.618994 28.084531-4.473422 8.972831-9.097853 10.961955-21.824094 4.416632-28.441812-6.523852-6.622551-19.100965-4.613557-28.073795 4.478859" fill="#828d8c"/><path d="m128.566638 148.477651c-4.92957 5.003758-5.743113 12.29255-1.801246 16.288792 3.946041 3.99745 11.154009 3.185034 16.089543-1.818725 4.940902-5.009195 5.753848-12.304027 1.80721-16.300872-3.946041-3.996242-11.154605-3.173557-16.095507 1.830805" fill="#ededea"/><path d="m127.481715 139.899866c-3.935902 3.985369-6.513116 8.821208-7.262243 13.618993-.694852 4.473423.310745 8.339799 2.834279 10.89604 5.234946 5.312416 16.662124 3.18443 24.213044-4.472818 3.935306-3.99141 6.513116-8.827249 7.256279-13.620202.70022-4.472819-.310148-8.344631-2.839647-10.900872-1.994492-2.025302-4.796563-3.092618-8.11694-3.092618-5.395389 0-11.405707 2.832886-16.084772 7.571477zm-8.299451 28.436376c-3.796335-3.840403-5.347077-9.411947-4.36832-15.683557.92448-5.946041 4.048032-11.8649 8.796284-16.674162 5.764585-5.843355 13.042336-9.1951 19.956259-9.1951 4.806703 0 8.951359 1.630268 11.988427 4.716845 3.8023 3.839799 5.358409 9.411947 4.379653 15.682953-.925077 5.940605-4.048033 11.870336-8.796285 16.678994-5.764585 5.837919-13.037564 9.190268-19.956258 9.190268-4.801932 0-8.951956-1.630268-11.99976-4.716241z" fill="#121716"/><path d="m101.717929 6.13389262c.128234-.41134228.261837-.81181208.379335-1.24550336-5.6894331-1.26120805-11.5554124-1.94919463-17.5603619-1.94919463-6.005546 0-11.8709288.68798658-17.5609585 1.94919463.118095.43369128.2516973.83416108.3799318 1.24550336l-2.9893531.53093959.4169109 1.28899329.1336024 1.00691276c.8719941-.30865772 1.7970712-.50919464 2.7865638-.50919464 1.5877211 0 3.2666973.6614094 4.5770742 1.53845638 4.9301662 3.3571812 8.539816 7.8843624 10.9780593 13.0131544.2725727.3950335.6686083.7091275 1.2298576.7091275.6202967 0 1.0640475-.3678524 1.3318487-.8226846h.0423472c2.4442077-5.0798658 6.0323857-9.563557 10.9303442-12.8995973 1.3097804-.87704698 2.9887566-1.53845638 4.5770744-1.53845638.989492 0 1.913973.20053692 2.785967.50919464l.133602-1.00691276.416911-1.28899329z" fill="#121716"/></g></svg>